<mxfile host="app.diagrams.net" agent="Mozilla/5.0 (X11; Linux x86_64) AppleWebKit/537.36 (KHTML, like Gecko) Chrome/131.0.0.0 Safari/537.36" version="25.0.3">
  <diagram name="Page-1" id="xSlXatTa5TizmNH104zd">
    <mxGraphModel dx="1257" dy="687" grid="1" gridSize="10" guides="1" tooltips="1" connect="1" arrows="1" fold="1" page="1" pageScale="1" pageWidth="1100" pageHeight="850" math="0" shadow="0">
      <root>
        <mxCell id="0" />
        <mxCell id="1" parent="0" />
        <mxCell id="Sg_4rNXFZ54ifpU4IuhS-2" value="&lt;font style=&quot;font-size: 25px;&quot;&gt;Add&lt;/font&gt;&lt;div&gt;&lt;font style=&quot;font-size: 25px;&quot;&gt;Product&lt;/font&gt;&lt;/div&gt;" style="shape=ellipse;html=1;dashed=0;whiteSpace=wrap;perimeter=ellipsePerimeter;" parent="1" vertex="1">
          <mxGeometry x="800" y="700" width="110" height="110" as="geometry" />
        </mxCell>
        <mxCell id="Sg_4rNXFZ54ifpU4IuhS-3" value="&lt;font style=&quot;font-size: 25px;&quot;&gt;Add&lt;/font&gt;&lt;div&gt;&lt;font style=&quot;font-size: 25px;&quot;&gt;New&lt;/font&gt;&lt;/div&gt;&lt;div&gt;&lt;font style=&quot;font-size: 25px;&quot;&gt;Import&lt;/font&gt;&lt;/div&gt;" style="shape=ellipse;html=1;dashed=0;whiteSpace=wrap;perimeter=ellipsePerimeter;" parent="1" vertex="1">
          <mxGeometry x="1730" y="600" width="110" height="110" as="geometry" />
        </mxCell>
        <mxCell id="Sg_4rNXFZ54ifpU4IuhS-4" value="&lt;font style=&quot;font-size: 25px;&quot;&gt;Add&lt;/font&gt;&lt;div&gt;&lt;font style=&quot;font-size: 25px;&quot;&gt;Suppiler&lt;/font&gt;&lt;/div&gt;" style="shape=ellipse;html=1;dashed=0;whiteSpace=wrap;perimeter=ellipsePerimeter;" parent="1" vertex="1">
          <mxGeometry x="1770" y="220" width="110" height="110" as="geometry" />
        </mxCell>
        <mxCell id="Sg_4rNXFZ54ifpU4IuhS-5" value="&lt;font style=&quot;font-size: 25px;&quot;&gt;Edit&lt;/font&gt;&lt;div&gt;&lt;font style=&quot;font-size: 25px;&quot;&gt;Stock&lt;/font&gt;&lt;/div&gt;" style="shape=ellipse;html=1;dashed=0;whiteSpace=wrap;perimeter=ellipsePerimeter;" parent="1" vertex="1">
          <mxGeometry x="800" y="360" width="110" height="110" as="geometry" />
        </mxCell>
        <mxCell id="Sg_4rNXFZ54ifpU4IuhS-6" value="&lt;font style=&quot;font-size: 25px;&quot;&gt;Check&amp;nbsp;&lt;/font&gt;&lt;div&gt;&lt;font style=&quot;font-size: 25px;&quot;&gt;Supplier&lt;/font&gt;&lt;/div&gt;" style="shape=ellipse;html=1;dashed=0;whiteSpace=wrap;perimeter=ellipsePerimeter;" parent="1" vertex="1">
          <mxGeometry x="1170" y="130" width="110" height="110" as="geometry" />
        </mxCell>
        <mxCell id="Sg_4rNXFZ54ifpU4IuhS-7" value="&lt;font style=&quot;font-size: 25px;&quot;&gt;Check&lt;/font&gt;&lt;div&gt;&lt;font style=&quot;font-size: 25px;&quot;&gt;Product&lt;/font&gt;&lt;/div&gt;" style="shape=ellipse;html=1;dashed=0;whiteSpace=wrap;perimeter=ellipsePerimeter;" parent="1" vertex="1">
          <mxGeometry x="310" y="555" width="110" height="110" as="geometry" />
        </mxCell>
        <mxCell id="Sg_4rNXFZ54ifpU4IuhS-8" value="&lt;font style=&quot;font-size: 25px;&quot;&gt;Edit&lt;/font&gt;&lt;div&gt;&lt;font style=&quot;font-size: 25px;&quot;&gt;Supplier&lt;/font&gt;&lt;/div&gt;" style="shape=ellipse;html=1;dashed=0;whiteSpace=wrap;perimeter=ellipsePerimeter;" parent="1" vertex="1">
          <mxGeometry x="1770" y="20" width="110" height="110" as="geometry" />
        </mxCell>
        <mxCell id="Sg_4rNXFZ54ifpU4IuhS-9" value="&lt;font style=&quot;font-size: 25px;&quot;&gt;Supplier&lt;/font&gt;" style="html=1;dashed=0;whiteSpace=wrap;" parent="1" vertex="1">
          <mxGeometry x="310" y="120" width="150" height="70" as="geometry" />
        </mxCell>
        <mxCell id="Sg_4rNXFZ54ifpU4IuhS-14" value="" style="endArrow=none;html=1;rounded=0;strokeWidth=3;" parent="1" edge="1">
          <mxGeometry relative="1" as="geometry">
            <mxPoint x="420" y="609.1700000000001" as="sourcePoint" />
            <mxPoint x="580" y="609.1700000000001" as="targetPoint" />
          </mxGeometry>
        </mxCell>
        <mxCell id="Sg_4rNXFZ54ifpU4IuhS-15" value="" style="endArrow=classic;html=1;rounded=0;strokeWidth=3;" parent="1" target="Sg_4rNXFZ54ifpU4IuhS-5" edge="1">
          <mxGeometry width="50" height="50" relative="1" as="geometry">
            <mxPoint x="580" y="610" as="sourcePoint" />
            <mxPoint x="630" y="560" as="targetPoint" />
          </mxGeometry>
        </mxCell>
        <mxCell id="Sg_4rNXFZ54ifpU4IuhS-16" value="" style="endArrow=classic;html=1;rounded=0;strokeWidth=3;entryX=0;entryY=0.5;entryDx=0;entryDy=0;" parent="1" target="Sg_4rNXFZ54ifpU4IuhS-2" edge="1">
          <mxGeometry width="50" height="50" relative="1" as="geometry">
            <mxPoint x="580" y="610" as="sourcePoint" />
            <mxPoint x="820" y="457" as="targetPoint" />
          </mxGeometry>
        </mxCell>
        <mxCell id="Sg_4rNXFZ54ifpU4IuhS-17" value="&lt;font style=&quot;font-size: 25px;&quot;&gt;Product&lt;/font&gt;" style="html=1;dashed=0;whiteSpace=wrap;shape=partialRectangle;right=0;left=0;" parent="1" vertex="1">
          <mxGeometry x="330" y="760" width="100" height="30" as="geometry" />
        </mxCell>
        <mxCell id="Sg_4rNXFZ54ifpU4IuhS-18" value="&lt;font style=&quot;font-size: 25px;&quot;&gt;Supplier&lt;/font&gt;" style="html=1;dashed=0;whiteSpace=wrap;shape=partialRectangle;right=0;left=0;" parent="1" vertex="1">
          <mxGeometry x="1180" y="320" width="100" height="30" as="geometry" />
        </mxCell>
        <mxCell id="Sg_4rNXFZ54ifpU4IuhS-19" value="&lt;font style=&quot;font-size: 25px;&quot;&gt;Staff&lt;/font&gt;" style="html=1;dashed=0;whiteSpace=wrap;shape=partialRectangle;right=0;left=0;" parent="1" vertex="1">
          <mxGeometry x="1940" y="530" width="100" height="30" as="geometry" />
        </mxCell>
        <mxCell id="Sg_4rNXFZ54ifpU4IuhS-20" value="&lt;font style=&quot;font-size: 25px;&quot;&gt;Import&lt;/font&gt;" style="html=1;dashed=0;whiteSpace=wrap;shape=partialRectangle;right=0;left=0;" parent="1" vertex="1">
          <mxGeometry x="1940" y="635" width="100" height="30" as="geometry" />
        </mxCell>
        <mxCell id="Sg_4rNXFZ54ifpU4IuhS-21" value="&lt;font style=&quot;font-size: 25px;&quot;&gt;Supplier&lt;/font&gt;" style="html=1;dashed=0;whiteSpace=wrap;shape=partialRectangle;right=0;left=0;" parent="1" vertex="1">
          <mxGeometry x="1940" y="750" width="100" height="30" as="geometry" />
        </mxCell>
        <mxCell id="Sg_4rNXFZ54ifpU4IuhS-22" value="&lt;font style=&quot;font-size: 25px;&quot;&gt;Product&lt;/font&gt;" style="html=1;dashed=0;whiteSpace=wrap;shape=partialRectangle;right=0;left=0;" parent="1" vertex="1">
          <mxGeometry x="1200" y="650" width="100" height="30" as="geometry" />
        </mxCell>
        <mxCell id="Sg_4rNXFZ54ifpU4IuhS-23" value="&lt;font style=&quot;font-size: 25px;&quot;&gt;imported Pro.&lt;/font&gt;" style="text;html=1;align=center;verticalAlign=middle;resizable=0;points=[];autosize=1;strokeColor=none;fillColor=none;" parent="1" vertex="1">
          <mxGeometry x="420" y="560" width="170" height="40" as="geometry" />
        </mxCell>
        <mxCell id="Sg_4rNXFZ54ifpU4IuhS-24" value="&lt;font style=&quot;font-size: 25px;&quot;&gt;True&lt;/font&gt;" style="text;html=1;align=center;verticalAlign=middle;resizable=0;points=[];autosize=1;strokeColor=none;fillColor=none;rotation=-40;" parent="1" vertex="1">
          <mxGeometry x="625" y="483" width="70" height="40" as="geometry" />
        </mxCell>
        <mxCell id="Sg_4rNXFZ54ifpU4IuhS-25" value="&lt;font style=&quot;font-size: 25px;&quot;&gt;False&lt;/font&gt;" style="text;html=1;align=center;verticalAlign=middle;resizable=0;points=[];autosize=1;strokeColor=none;fillColor=none;rotation=30;" parent="1" vertex="1">
          <mxGeometry x="660" y="630" width="80" height="40" as="geometry" />
        </mxCell>
        <mxCell id="Sg_4rNXFZ54ifpU4IuhS-26" value="" style="endArrow=classic;html=1;rounded=0;exitX=0.5;exitY=1;exitDx=0;exitDy=0;entryX=0.638;entryY=0.008;entryDx=0;entryDy=0;entryPerimeter=0;" parent="1" source="Sg_4rNXFZ54ifpU4IuhS-9" target="Sg_4rNXFZ54ifpU4IuhS-7" edge="1">
          <mxGeometry width="50" height="50" relative="1" as="geometry">
            <mxPoint x="390" y="290" as="sourcePoint" />
            <mxPoint x="380" y="550" as="targetPoint" />
          </mxGeometry>
        </mxCell>
        <mxCell id="Sg_4rNXFZ54ifpU4IuhS-27" value="&lt;font style=&quot;font-size: 25px;&quot;&gt;imported Pro.&lt;/font&gt;" style="text;html=1;align=center;verticalAlign=middle;resizable=0;points=[];autosize=1;strokeColor=none;fillColor=none;rotation=90;" parent="1" vertex="1">
          <mxGeometry x="270" y="350" width="170" height="40" as="geometry" />
        </mxCell>
        <mxCell id="Sg_4rNXFZ54ifpU4IuhS-29" value="" style="endArrow=classic;html=1;rounded=0;entryX=0;entryY=0.5;entryDx=0;entryDy=0;" parent="1" target="Sg_4rNXFZ54ifpU4IuhS-6" edge="1">
          <mxGeometry width="50" height="50" relative="1" as="geometry">
            <mxPoint x="460" y="160" as="sourcePoint" />
            <mxPoint x="510" y="110" as="targetPoint" />
          </mxGeometry>
        </mxCell>
        <mxCell id="Sg_4rNXFZ54ifpU4IuhS-30" value="&lt;font style=&quot;font-size: 25px;&quot;&gt;Supplier&#39;s Info&lt;/font&gt;" style="text;html=1;align=center;verticalAlign=middle;resizable=0;points=[];autosize=1;strokeColor=none;fillColor=none;rotation=0;" parent="1" vertex="1">
          <mxGeometry x="660" y="120" width="180" height="40" as="geometry" />
        </mxCell>
        <mxCell id="Sg_4rNXFZ54ifpU4IuhS-31" value="" style="endArrow=classic;html=1;rounded=0;" parent="1" target="Sg_4rNXFZ54ifpU4IuhS-8" edge="1">
          <mxGeometry width="50" height="50" relative="1" as="geometry">
            <mxPoint x="1560" y="200" as="sourcePoint" />
            <mxPoint x="1610" y="150" as="targetPoint" />
          </mxGeometry>
        </mxCell>
        <mxCell id="Sg_4rNXFZ54ifpU4IuhS-32" value="" style="endArrow=classic;html=1;rounded=0;entryX=0;entryY=0.5;entryDx=0;entryDy=0;" parent="1" target="Sg_4rNXFZ54ifpU4IuhS-4" edge="1">
          <mxGeometry width="50" height="50" relative="1" as="geometry">
            <mxPoint x="1560" y="200" as="sourcePoint" />
            <mxPoint x="1785" y="108" as="targetPoint" />
          </mxGeometry>
        </mxCell>
        <mxCell id="Sg_4rNXFZ54ifpU4IuhS-33" value="" style="line;strokeWidth=1;rotatable=0;dashed=0;labelPosition=right;align=left;verticalAlign=middle;spacingTop=0;spacingLeft=6;points=[];portConstraint=eastwest;" parent="1" vertex="1">
          <mxGeometry x="1280" y="194" width="281" height="10" as="geometry" />
        </mxCell>
        <mxCell id="Sg_4rNXFZ54ifpU4IuhS-36" value="&lt;font style=&quot;font-size: 25px;&quot;&gt;Supplier&lt;/font&gt;" style="html=1;dashed=0;whiteSpace=wrap;shape=partialRectangle;right=0;left=0;" parent="1" vertex="1">
          <mxGeometry x="2010" y="130" width="100" height="30" as="geometry" />
        </mxCell>
        <mxCell id="Sg_4rNXFZ54ifpU4IuhS-37" value="" style="endArrow=classic;html=1;rounded=0;entryX=0.5;entryY=1;entryDx=0;entryDy=0;" parent="1" target="Sg_4rNXFZ54ifpU4IuhS-7" edge="1">
          <mxGeometry width="50" height="50" relative="1" as="geometry">
            <mxPoint x="370" y="760" as="sourcePoint" />
            <mxPoint x="420" y="710" as="targetPoint" />
          </mxGeometry>
        </mxCell>
        <mxCell id="Sg_4rNXFZ54ifpU4IuhS-38" value="" style="endArrow=classic;html=1;rounded=0;entryX=0.5;entryY=1;entryDx=0;entryDy=0;" parent="1" target="Sg_4rNXFZ54ifpU4IuhS-6" edge="1">
          <mxGeometry width="50" height="50" relative="1" as="geometry">
            <mxPoint x="1220" y="320" as="sourcePoint" />
            <mxPoint x="1270" y="270" as="targetPoint" />
          </mxGeometry>
        </mxCell>
        <mxCell id="Sg_4rNXFZ54ifpU4IuhS-39" value="&lt;font style=&quot;font-size: 25px;&quot;&gt;Supplier&#39;s Info&lt;/font&gt;" style="text;html=1;align=center;verticalAlign=middle;resizable=0;points=[];autosize=1;strokeColor=none;fillColor=none;" parent="1" vertex="1">
          <mxGeometry x="1300" y="150" width="180" height="40" as="geometry" />
        </mxCell>
        <mxCell id="Sg_4rNXFZ54ifpU4IuhS-40" value="&lt;font style=&quot;font-size: 25px;&quot;&gt;True&lt;/font&gt;" style="text;html=1;align=center;verticalAlign=middle;resizable=0;points=[];autosize=1;strokeColor=none;fillColor=none;rotation=-30;" parent="1" vertex="1">
          <mxGeometry x="1600" y="110" width="70" height="40" as="geometry" />
        </mxCell>
        <mxCell id="Sg_4rNXFZ54ifpU4IuhS-41" value="&lt;font style=&quot;font-size: 25px;&quot;&gt;False&lt;/font&gt;" style="text;html=1;align=center;verticalAlign=middle;resizable=0;points=[];autosize=1;strokeColor=none;fillColor=none;rotation=15;" parent="1" vertex="1">
          <mxGeometry x="1585" y="240" width="80" height="40" as="geometry" />
        </mxCell>
        <mxCell id="Sg_4rNXFZ54ifpU4IuhS-42" value="" style="endArrow=classic;html=1;rounded=0;" parent="1" edge="1">
          <mxGeometry width="50" height="50" relative="1" as="geometry">
            <mxPoint x="1880" y="270" as="sourcePoint" />
            <mxPoint x="2020" y="170" as="targetPoint" />
          </mxGeometry>
        </mxCell>
        <mxCell id="Sg_4rNXFZ54ifpU4IuhS-43" value="" style="endArrow=classic;html=1;rounded=0;exitX=0.935;exitY=0.256;exitDx=0;exitDy=0;exitPerimeter=0;entryX=0.62;entryY=-0.117;entryDx=0;entryDy=0;entryPerimeter=0;" parent="1" source="Sg_4rNXFZ54ifpU4IuhS-8" target="Sg_4rNXFZ54ifpU4IuhS-36" edge="1">
          <mxGeometry width="50" height="50" relative="1" as="geometry">
            <mxPoint x="1880" y="50" as="sourcePoint" />
            <mxPoint x="2060" y="110" as="targetPoint" />
          </mxGeometry>
        </mxCell>
        <mxCell id="Sg_4rNXFZ54ifpU4IuhS-44" value="" style="endArrow=classic;html=1;rounded=0;entryX=1;entryY=0.5;entryDx=0;entryDy=0;exitX=0.137;exitY=-0.006;exitDx=0;exitDy=0;exitPerimeter=0;" parent="1" source="Sg_4rNXFZ54ifpU4IuhS-36" target="Sg_4rNXFZ54ifpU4IuhS-8" edge="1">
          <mxGeometry width="50" height="50" relative="1" as="geometry">
            <mxPoint x="1920" y="180" as="sourcePoint" />
            <mxPoint x="1970" y="130" as="targetPoint" />
          </mxGeometry>
        </mxCell>
        <mxCell id="Sg_4rNXFZ54ifpU4IuhS-45" value="" style="endArrow=classic;html=1;rounded=0;entryX=0;entryY=0.5;entryDx=0;entryDy=0;" parent="1" target="Sg_4rNXFZ54ifpU4IuhS-20" edge="1">
          <mxGeometry width="50" height="50" relative="1" as="geometry">
            <mxPoint x="1840" y="660" as="sourcePoint" />
            <mxPoint x="1930" y="650" as="targetPoint" />
          </mxGeometry>
        </mxCell>
        <mxCell id="Sg_4rNXFZ54ifpU4IuhS-46" value="" style="endArrow=classic;html=1;rounded=0;exitX=0;exitY=0.5;exitDx=0;exitDy=0;" parent="1" source="Sg_4rNXFZ54ifpU4IuhS-19" target="Sg_4rNXFZ54ifpU4IuhS-3" edge="1">
          <mxGeometry width="50" height="50" relative="1" as="geometry">
            <mxPoint x="1820" y="610" as="sourcePoint" />
            <mxPoint x="1870" y="560" as="targetPoint" />
          </mxGeometry>
        </mxCell>
        <mxCell id="Sg_4rNXFZ54ifpU4IuhS-47" value="" style="endArrow=classic;html=1;rounded=0;exitX=0;exitY=0.25;exitDx=0;exitDy=0;" parent="1" source="Sg_4rNXFZ54ifpU4IuhS-21" edge="1">
          <mxGeometry width="50" height="50" relative="1" as="geometry">
            <mxPoint x="1910" y="635" as="sourcePoint" />
            <mxPoint x="1800" y="713" as="targetPoint" />
          </mxGeometry>
        </mxCell>
        <mxCell id="Sg_4rNXFZ54ifpU4IuhS-48" value="" style="endArrow=classic;html=1;rounded=0;entryX=0.344;entryY=1.153;entryDx=0;entryDy=0;entryPerimeter=0;" parent="1" target="Sg_4rNXFZ54ifpU4IuhS-22" edge="1">
          <mxGeometry width="50" height="50" relative="1" as="geometry">
            <mxPoint x="910" y="760" as="sourcePoint" />
            <mxPoint x="960" y="710" as="targetPoint" />
          </mxGeometry>
        </mxCell>
        <mxCell id="Sg_4rNXFZ54ifpU4IuhS-49" value="" style="endArrow=classic;html=1;rounded=0;entryX=0.332;entryY=-0.024;entryDx=0;entryDy=0;entryPerimeter=0;" parent="1" target="Sg_4rNXFZ54ifpU4IuhS-22" edge="1">
          <mxGeometry width="50" height="50" relative="1" as="geometry">
            <mxPoint x="890" y="460" as="sourcePoint" />
            <mxPoint x="940" y="410" as="targetPoint" />
          </mxGeometry>
        </mxCell>
        <mxCell id="Sg_4rNXFZ54ifpU4IuhS-50" value="" style="endArrow=classic;html=1;rounded=0;entryX=1.019;entryY=0.619;entryDx=0;entryDy=0;entryPerimeter=0;" parent="1" target="Sg_4rNXFZ54ifpU4IuhS-5" edge="1">
          <mxGeometry width="50" height="50" relative="1" as="geometry">
            <mxPoint x="1250" y="650" as="sourcePoint" />
            <mxPoint x="1300" y="600" as="targetPoint" />
          </mxGeometry>
        </mxCell>
        <mxCell id="Sg_4rNXFZ54ifpU4IuhS-51" value="" style="endArrow=classic;html=1;rounded=0;entryX=0;entryY=0;entryDx=0;entryDy=0;" parent="1" target="Sg_4rNXFZ54ifpU4IuhS-3" edge="1">
          <mxGeometry width="50" height="50" relative="1" as="geometry">
            <mxPoint x="910" y="400" as="sourcePoint" />
            <mxPoint x="960" y="350" as="targetPoint" />
          </mxGeometry>
        </mxCell>
        <mxCell id="Sg_4rNXFZ54ifpU4IuhS-52" value="" style="endArrow=classic;html=1;rounded=0;" parent="1" target="Sg_4rNXFZ54ifpU4IuhS-3" edge="1">
          <mxGeometry width="50" height="50" relative="1" as="geometry">
            <mxPoint x="890" y="800" as="sourcePoint" />
            <mxPoint x="1726" y="1016" as="targetPoint" />
          </mxGeometry>
        </mxCell>
        <mxCell id="Sg_4rNXFZ54ifpU4IuhS-54" value="&lt;font style=&quot;font-size: 25px;&quot;&gt;Imported Product&lt;/font&gt;" style="text;html=1;align=center;verticalAlign=middle;resizable=0;points=[];autosize=1;strokeColor=none;fillColor=none;rotation=-15;" parent="1" vertex="1">
          <mxGeometry x="1180" y="750" width="220" height="40" as="geometry" />
        </mxCell>
        <mxCell id="Sg_4rNXFZ54ifpU4IuhS-55" value="&lt;font style=&quot;font-size: 25px;&quot;&gt;Imported Product&lt;/font&gt;" style="text;html=1;align=center;verticalAlign=middle;resizable=0;points=[];autosize=1;strokeColor=none;fillColor=none;rotation=10;" parent="1" vertex="1">
          <mxGeometry x="1230" y="460" width="220" height="40" as="geometry" />
        </mxCell>
        <mxCell id="gl5qupfcSJACFOPlEofR-1" value="&lt;font style=&quot;font-size: 15px;&quot;&gt;2.2&lt;/font&gt;" style="text;html=1;align=center;verticalAlign=middle;resizable=0;points=[];autosize=1;strokeColor=none;fillColor=none;" vertex="1" parent="1">
          <mxGeometry x="345" y="555" width="40" height="30" as="geometry" />
        </mxCell>
        <mxCell id="gl5qupfcSJACFOPlEofR-2" value="&lt;font style=&quot;font-size: 15px;&quot;&gt;2.2.1&lt;/font&gt;" style="text;html=1;align=center;verticalAlign=middle;resizable=0;points=[];autosize=1;strokeColor=none;fillColor=none;" vertex="1" parent="1">
          <mxGeometry x="825" y="360" width="60" height="30" as="geometry" />
        </mxCell>
        <mxCell id="gl5qupfcSJACFOPlEofR-3" value="&lt;font style=&quot;font-size: 15px;&quot;&gt;2.2.1&lt;/font&gt;" style="text;html=1;align=center;verticalAlign=middle;resizable=0;points=[];autosize=1;strokeColor=none;fillColor=none;" vertex="1" parent="1">
          <mxGeometry x="825" y="700" width="60" height="30" as="geometry" />
        </mxCell>
        <mxCell id="gl5qupfcSJACFOPlEofR-4" value="&lt;font style=&quot;font-size: 15px;&quot;&gt;2.2.1&lt;/font&gt;" style="text;html=1;align=center;verticalAlign=middle;resizable=0;points=[];autosize=1;strokeColor=none;fillColor=none;" vertex="1" parent="1">
          <mxGeometry x="1750" y="595" width="60" height="30" as="geometry" />
        </mxCell>
        <mxCell id="gl5qupfcSJACFOPlEofR-5" value="&lt;font style=&quot;font-size: 15px;&quot;&gt;2.1&lt;/font&gt;" style="text;html=1;align=center;verticalAlign=middle;resizable=0;points=[];autosize=1;strokeColor=none;fillColor=none;" vertex="1" parent="1">
          <mxGeometry x="1205" y="130" width="40" height="30" as="geometry" />
        </mxCell>
        <mxCell id="gl5qupfcSJACFOPlEofR-6" value="&lt;font style=&quot;font-size: 15px;&quot;&gt;2.1.1&lt;/font&gt;" style="text;html=1;align=center;verticalAlign=middle;resizable=0;points=[];autosize=1;strokeColor=none;fillColor=none;" vertex="1" parent="1">
          <mxGeometry x="1795" y="220" width="60" height="30" as="geometry" />
        </mxCell>
        <mxCell id="gl5qupfcSJACFOPlEofR-7" value="&lt;font style=&quot;font-size: 15px;&quot;&gt;2.1.1&lt;/font&gt;" style="text;html=1;align=center;verticalAlign=middle;resizable=0;points=[];autosize=1;strokeColor=none;fillColor=none;" vertex="1" parent="1">
          <mxGeometry x="1790" y="20" width="60" height="30" as="geometry" />
        </mxCell>
      </root>
    </mxGraphModel>
  </diagram>
</mxfile>
